<mxfile host="app.diagrams.net" modified="2021-05-29T22:55:45.340Z" agent="5.0 (Windows NT 10.0; Win64; x64) AppleWebKit/537.36 (KHTML, like Gecko) Chrome/81.0.4044.138 Safari/537.36 OPR/68.0.3618.206" etag="Clv9G1FNTjv89nu8m-58" version="14.7.3" type="github">
  <diagram id="M0YANP80NN6mwz5unG4D" name="Page-1">
    <mxGraphModel dx="827" dy="452" grid="1" gridSize="10" guides="1" tooltips="1" connect="1" arrows="1" fold="1" page="1" pageScale="1" pageWidth="850" pageHeight="1100" math="0" shadow="0">
      <root>
        <mxCell id="0" />
        <mxCell id="1" parent="0" />
        <mxCell id="8_MGj-IACaBmUXTCEFvr-3" value="Item" style="whiteSpace=wrap;html=1;align=center;" vertex="1" parent="1">
          <mxGeometry x="140" y="180" width="100" height="40" as="geometry" />
        </mxCell>
        <mxCell id="8_MGj-IACaBmUXTCEFvr-7" value="Name&lt;br&gt;" style="ellipse;whiteSpace=wrap;html=1;align=center;" vertex="1" parent="1">
          <mxGeometry x="270" y="20" width="100" height="40" as="geometry" />
        </mxCell>
        <mxCell id="8_MGj-IACaBmUXTCEFvr-10" value="Serial_No." style="ellipse;whiteSpace=wrap;html=1;align=center;" vertex="1" parent="1">
          <mxGeometry x="270" y="60" width="100" height="40" as="geometry" />
        </mxCell>
        <mxCell id="8_MGj-IACaBmUXTCEFvr-11" value="Expiry Date" style="ellipse;whiteSpace=wrap;html=1;align=center;" vertex="1" parent="1">
          <mxGeometry x="270" y="100" width="100" height="40" as="geometry" />
        </mxCell>
        <mxCell id="8_MGj-IACaBmUXTCEFvr-12" value="Price&lt;br&gt;" style="ellipse;whiteSpace=wrap;html=1;align=center;" vertex="1" parent="1">
          <mxGeometry x="270" y="140" width="100" height="40" as="geometry" />
        </mxCell>
        <mxCell id="8_MGj-IACaBmUXTCEFvr-13" value="category" style="ellipse;whiteSpace=wrap;html=1;align=center;" vertex="1" parent="1">
          <mxGeometry x="270" y="180" width="100" height="40" as="geometry" />
        </mxCell>
        <mxCell id="8_MGj-IACaBmUXTCEFvr-15" value="quantity" style="ellipse;whiteSpace=wrap;html=1;align=center;" vertex="1" parent="1">
          <mxGeometry x="270" y="220" width="100" height="40" as="geometry" />
        </mxCell>
        <mxCell id="8_MGj-IACaBmUXTCEFvr-18" value="employee" style="whiteSpace=wrap;html=1;align=center;" vertex="1" parent="1">
          <mxGeometry x="425" y="180" width="100" height="40" as="geometry" />
        </mxCell>
        <mxCell id="8_MGj-IACaBmUXTCEFvr-41" style="edgeStyle=none;rounded=0;orthogonalLoop=1;jettySize=auto;html=1;entryX=1;entryY=0.5;entryDx=0;entryDy=0;endArrow=none;endFill=0;" edge="1" parent="1" source="8_MGj-IACaBmUXTCEFvr-19" target="8_MGj-IACaBmUXTCEFvr-31">
          <mxGeometry relative="1" as="geometry" />
        </mxCell>
        <mxCell id="8_MGj-IACaBmUXTCEFvr-42" style="edgeStyle=none;rounded=0;orthogonalLoop=1;jettySize=auto;html=1;entryX=0;entryY=0.5;entryDx=0;entryDy=0;endArrow=none;endFill=0;" edge="1" parent="1" source="8_MGj-IACaBmUXTCEFvr-19" target="8_MGj-IACaBmUXTCEFvr-30">
          <mxGeometry relative="1" as="geometry" />
        </mxCell>
        <mxCell id="8_MGj-IACaBmUXTCEFvr-19" value="Name" style="ellipse;whiteSpace=wrap;html=1;align=center;" vertex="1" parent="1">
          <mxGeometry x="580" y="30" width="100" height="40" as="geometry" />
        </mxCell>
        <mxCell id="8_MGj-IACaBmUXTCEFvr-20" value="Phone_Number" style="ellipse;whiteSpace=wrap;html=1;align=center;" vertex="1" parent="1">
          <mxGeometry x="580" y="70" width="100" height="40" as="geometry" />
        </mxCell>
        <mxCell id="8_MGj-IACaBmUXTCEFvr-21" value="Address" style="ellipse;whiteSpace=wrap;html=1;align=center;" vertex="1" parent="1">
          <mxGeometry x="580" y="110" width="100" height="40" as="geometry" />
        </mxCell>
        <mxCell id="8_MGj-IACaBmUXTCEFvr-22" value="Salary" style="ellipse;whiteSpace=wrap;html=1;align=center;" vertex="1" parent="1">
          <mxGeometry x="580" y="150" width="100" height="40" as="geometry" />
        </mxCell>
        <mxCell id="8_MGj-IACaBmUXTCEFvr-23" value="Job" style="ellipse;whiteSpace=wrap;html=1;align=center;" vertex="1" parent="1">
          <mxGeometry x="580" y="190" width="100" height="40" as="geometry" />
        </mxCell>
        <mxCell id="8_MGj-IACaBmUXTCEFvr-24" value="Department" style="ellipse;whiteSpace=wrap;html=1;align=center;" vertex="1" parent="1">
          <mxGeometry x="580" y="230" width="100" height="40" as="geometry" />
        </mxCell>
        <mxCell id="8_MGj-IACaBmUXTCEFvr-26" value="Age" style="ellipse;whiteSpace=wrap;html=1;align=center;dashed=1;" vertex="1" parent="1">
          <mxGeometry x="580" y="350" width="100" height="40" as="geometry" />
        </mxCell>
        <mxCell id="8_MGj-IACaBmUXTCEFvr-27" value="Birthday" style="ellipse;whiteSpace=wrap;html=1;align=center;" vertex="1" parent="1">
          <mxGeometry x="580" y="270" width="100" height="40" as="geometry" />
        </mxCell>
        <mxCell id="8_MGj-IACaBmUXTCEFvr-28" value="Gender" style="ellipse;whiteSpace=wrap;html=1;align=center;" vertex="1" parent="1">
          <mxGeometry x="580" y="310" width="100" height="40" as="geometry" />
        </mxCell>
        <mxCell id="8_MGj-IACaBmUXTCEFvr-30" value="FirstName" style="ellipse;whiteSpace=wrap;html=1;align=center;" vertex="1" parent="1">
          <mxGeometry x="720" y="10" width="100" height="40" as="geometry" />
        </mxCell>
        <mxCell id="8_MGj-IACaBmUXTCEFvr-31" value="LastName" style="ellipse;whiteSpace=wrap;html=1;align=center;" vertex="1" parent="1">
          <mxGeometry x="440" y="10" width="100" height="40" as="geometry" />
        </mxCell>
        <mxCell id="8_MGj-IACaBmUXTCEFvr-51" style="edgeStyle=none;rounded=0;orthogonalLoop=1;jettySize=auto;html=1;entryX=0.5;entryY=1;entryDx=0;entryDy=0;endArrow=none;endFill=0;" edge="1" parent="1" source="8_MGj-IACaBmUXTCEFvr-44" target="8_MGj-IACaBmUXTCEFvr-50">
          <mxGeometry relative="1" as="geometry" />
        </mxCell>
        <mxCell id="8_MGj-IACaBmUXTCEFvr-44" value="Bill" style="whiteSpace=wrap;html=1;align=center;" vertex="1" parent="1">
          <mxGeometry x="60" y="410" width="100" height="40" as="geometry" />
        </mxCell>
        <mxCell id="8_MGj-IACaBmUXTCEFvr-45" value="ID" style="ellipse;whiteSpace=wrap;html=1;align=center;" vertex="1" parent="1">
          <mxGeometry x="220" y="340" width="100" height="40" as="geometry" />
        </mxCell>
        <mxCell id="8_MGj-IACaBmUXTCEFvr-46" value="Date" style="ellipse;whiteSpace=wrap;html=1;align=center;" vertex="1" parent="1">
          <mxGeometry x="220" y="380" width="100" height="40" as="geometry" />
        </mxCell>
        <mxCell id="8_MGj-IACaBmUXTCEFvr-47" value="Attribute" style="ellipse;whiteSpace=wrap;html=1;align=center;" vertex="1" parent="1">
          <mxGeometry x="220" y="420" width="100" height="40" as="geometry" />
        </mxCell>
        <mxCell id="8_MGj-IACaBmUXTCEFvr-52" style="edgeStyle=none;rounded=0;orthogonalLoop=1;jettySize=auto;html=1;entryX=0.36;entryY=0.975;entryDx=0;entryDy=0;entryPerimeter=0;endArrow=none;endFill=0;" edge="1" parent="1" source="8_MGj-IACaBmUXTCEFvr-50" target="8_MGj-IACaBmUXTCEFvr-3">
          <mxGeometry relative="1" as="geometry" />
        </mxCell>
        <mxCell id="8_MGj-IACaBmUXTCEFvr-50" value="Contains" style="shape=rhombus;perimeter=rhombusPerimeter;whiteSpace=wrap;html=1;align=center;" vertex="1" parent="1">
          <mxGeometry x="70" y="260" width="120" height="60" as="geometry" />
        </mxCell>
      </root>
    </mxGraphModel>
  </diagram>
</mxfile>
